<svg width="107" height="61" viewBox="0 0 107 61" fill="none" xmlns="http://www.w3.org/2000/svg">
<rect x="107" width="61" height="107" rx="30.5" transform="rotate(90 107 0)" fill="white"/>
<path d="M9.536 37.216V32.544H18.88V37.216H9.536ZM29.9573 44.448C28.3999 44.448 26.8426 44.256 25.2853 43.872C23.7493 43.488 22.4053 42.944 21.2533 42.24L23.5573 37.472C24.4533 38.0693 25.4453 38.528 26.5333 38.848C27.6426 39.168 28.7199 39.328 29.7653 39.328C30.8533 39.328 31.7173 39.1253 32.3573 38.72C32.9973 38.3147 33.3173 37.7387 33.3173 36.992C33.3173 36.3307 33.0506 35.808 32.5173 35.424C31.9839 35.0187 31.1093 34.816 29.8933 34.816H27.2373V30.816L33.2533 24.32L33.8613 26.496H22.4053V21.6H38.5973V25.568L32.5813 32.064L29.4773 30.304H31.2053C33.9999 30.304 36.1119 30.9333 37.5413 32.192C38.9919 33.4293 39.7173 35.0293 39.7173 36.992C39.7173 38.272 39.3653 39.4773 38.6613 40.608C37.9786 41.7387 36.9226 42.6667 35.4933 43.392C34.0639 44.096 32.2186 44.448 29.9573 44.448ZM53.2385 44.448C51.3185 44.448 49.6118 43.9893 48.1185 43.072C46.6465 42.1547 45.4838 40.832 44.6305 39.104C43.7772 37.376 43.3505 35.2747 43.3505 32.8C43.3505 30.3253 43.7772 28.224 44.6305 26.496C45.4838 24.768 46.6465 23.4453 48.1185 22.528C49.6118 21.6107 51.3185 21.152 53.2385 21.152C55.1372 21.152 56.8225 21.6107 58.2945 22.528C59.7878 23.4453 60.9612 24.768 61.8145 26.496C62.6678 28.224 63.0945 30.3253 63.0945 32.8C63.0945 35.2747 62.6678 37.376 61.8145 39.104C60.9612 40.832 59.7878 42.1547 58.2945 43.072C56.8225 43.9893 55.1372 44.448 53.2385 44.448ZM53.2385 39.264C53.9212 39.264 54.5185 39.0507 55.0305 38.624C55.5638 38.1973 55.9798 37.5147 56.2785 36.576C56.5772 35.616 56.7265 34.3573 56.7265 32.8C56.7265 31.2213 56.5772 29.9627 56.2785 29.024C55.9798 28.0853 55.5638 27.4027 55.0305 26.976C54.5185 26.5493 53.9212 26.336 53.2385 26.336C52.5558 26.336 51.9478 26.5493 51.4145 26.976C50.9025 27.4027 50.4865 28.0853 50.1665 29.024C49.8678 29.9627 49.7185 31.2213 49.7185 32.8C49.7185 34.3573 49.8678 35.616 50.1665 36.576C50.4865 37.5147 50.9025 38.1973 51.4145 38.624C51.9478 39.0507 52.5558 39.264 53.2385 39.264ZM70.1527 44L85.4487 21.6H90.0568L74.7607 44H70.1527ZM72.2007 33.728C71.1127 33.728 70.1314 33.4827 69.2567 32.992C68.3821 32.5013 67.6994 31.7973 67.2087 30.88C66.7181 29.9413 66.4727 28.8213 66.4727 27.52C66.4727 26.2187 66.7181 25.1093 67.2087 24.192C67.6994 23.2747 68.3821 22.5707 69.2567 22.08C70.1314 21.568 71.1127 21.312 72.2007 21.312C73.3101 21.312 74.2914 21.568 75.1447 22.08C76.0194 22.5707 76.7021 23.2747 77.1927 24.192C77.7047 25.1093 77.9607 26.2187 77.9607 27.52C77.9607 28.8 77.7047 29.9093 77.1927 30.848C76.7021 31.7867 76.0194 32.5013 75.1447 32.992C74.2914 33.4827 73.3101 33.728 72.2007 33.728ZM72.2327 30.688C72.7661 30.688 73.2034 30.4427 73.5447 29.952C73.9074 29.4613 74.0887 28.6507 74.0887 27.52C74.0887 26.3893 73.9074 25.5787 73.5447 25.088C73.2034 24.5973 72.7661 24.352 72.2327 24.352C71.6994 24.352 71.2407 24.5973 70.8567 25.088C70.4941 25.5787 70.3127 26.3893 70.3127 27.52C70.3127 28.6507 70.4941 29.4613 70.8567 29.952C71.2407 30.4427 71.6994 30.688 72.2327 30.688ZM88.0088 44.288C86.8994 44.288 85.9074 44.0427 85.0328 43.552C84.1794 43.0613 83.5074 42.3573 83.0168 41.44C82.5261 40.5013 82.2808 39.3813 82.2808 38.08C82.2808 36.7787 82.5261 35.6693 83.0168 34.752C83.5074 33.8347 84.1794 33.1307 85.0328 32.64C85.9074 32.128 86.8994 31.872 88.0088 31.872C89.1181 31.872 90.0994 32.128 90.9528 32.64C91.8274 33.1307 92.5101 33.8347 93.0007 34.752C93.5128 35.6693 93.7688 36.7787 93.7688 38.08C93.7688 39.3813 93.5128 40.5013 93.0007 41.44C92.5101 42.3573 91.8274 43.0613 90.9528 43.552C90.0994 44.0427 89.1181 44.288 88.0088 44.288ZM88.0088 41.248C88.5421 41.248 88.9901 41.0027 89.3528 40.512C89.7154 40.0213 89.8967 39.2107 89.8967 38.08C89.8967 36.9493 89.7154 36.1387 89.3528 35.648C88.9901 35.1573 88.5421 34.912 88.0088 34.912C87.4967 34.912 87.0487 35.1573 86.6648 35.648C86.3021 36.1387 86.1208 36.9493 86.1208 38.08C86.1208 39.2107 86.3021 40.0213 86.6648 40.512C87.0487 41.0027 87.4967 41.248 88.0088 41.248Z" fill="black"/>
</svg>
