<svg width="65" height="66" viewBox="0 0 65 66" fill="none" xmlns="http://www.w3.org/2000/svg">
<rect x="65" width="66" height="65" rx="32.5" transform="rotate(90 65 0)" fill="white"/>
<path d="M48.7857 33.875V45C48.7857 47.2091 46.9949 49 44.7857 49H21.2143C19.0051 49 17.2143 47.2091 17.2143 45V33.875M33 40.75V35.25M37.8571 21.5C37.8571 21.5 37.8571 16 33 16C28.1429 16 28.1429 21.5 28.1429 21.5M33 38C39.9431 38 45.6456 35.1904 48.334 33.5874C49.4116 32.9449 50 31.7624 50 30.5078V25.5C50 23.2909 48.2091 21.5 46 21.5H20C17.7909 21.5 16 23.2909 16 25.5V30.5078C16 31.7624 16.5884 32.9449 17.666 33.5874C20.3544 35.1904 26.0569 38 33 38Z" stroke="#7ECC17" stroke-width="2" stroke-linecap="round" stroke-linejoin="round"/>
</svg>
