<svg width="345" height="132" viewBox="0 0 345 132" fill="none" xmlns="http://www.w3.org/2000/svg">
<path d="M103.417 13.37C102.588 8.06961 98.0142 4.00879 92.4787 4.00879H89.8499C83.7287 4.00879 78.7617 8.97152 78.7617 15.0969V42.1761" stroke="white" stroke-width="7" stroke-linecap="round" stroke-linejoin="round"/>
<path d="M66.1052 13.3612C65.2759 8.0608 60.7022 4 55.1667 4H52.5378C46.4167 4 41.4497 8.96273 41.4497 15.0881V42.1673" stroke="#33FF34" stroke-width="7" stroke-linecap="round" stroke-linejoin="round"/>
<path d="M4 4.04297V26.0611C4 33.2551 4.81216 40.1328 10.9632 42.2274" stroke="white" stroke-width="7" stroke-linecap="round" stroke-linejoin="round"/>
<path d="M21.7437 42.206C27.7665 40.0944 28.771 33.2337 28.771 26.0611C28.771 18.7217 28.771 11.3823 28.771 4.04297" stroke="white" stroke-width="7" stroke-miterlimit="10" stroke-linecap="round"/>
<path d="M66.1052 41.8295C65.2759 36.5291 59.313 32.4683 53.7775 32.4683C47.6563 32.4683 41.4497 36.0418 41.4497 42.1629" stroke="#33FF34" stroke-width="7" stroke-linecap="round" stroke-linejoin="round"/>
<path d="M228.374 102.703V100.1C228.374 93.9787 223.412 89.0117 217.286 89.0117H214.657C208.536 89.0117 203.569 93.9745 203.569 100.1V116.087C203.569 122.208 208.532 127.175 214.657 127.175H217.286C223.407 127.175 228.374 122.212 228.374 116.087V113.483" stroke="white" stroke-width="7" stroke-linecap="round" stroke-linejoin="round"/>
<path d="M289.428 89.0117H292.057C298.178 89.0117 303.145 93.9745 303.145 100.1V116.087C303.145 122.208 298.182 127.175 292.057 127.175H289.428" stroke="white" stroke-width="7" stroke-linecap="round" stroke-linejoin="round"/>
<path d="M278.34 89.0117V127.175" stroke="white" stroke-width="7" stroke-linecap="round" stroke-linejoin="round"/>
<path d="M258.758 126.388C262.861 124.764 265.768 120.767 265.768 116.087V100.1C265.768 95.4193 262.861 91.4227 258.758 89.7983" stroke="white" stroke-width="7" stroke-linecap="round" stroke-linejoin="round"/>
<path d="M247.973 89.7983C243.87 91.4227 240.963 95.4193 240.963 100.1V116.087C240.963 120.767 243.87 124.764 247.973 126.388" stroke="white" stroke-width="7" stroke-linecap="round" stroke-linejoin="round"/>
<path d="M340.248 108.559L328.578 108.469" stroke="#33FF34" stroke-width="7" stroke-linecap="round" stroke-linejoin="round"/>
<path d="M340.627 108.559V100.985C340.627 95.9921 337.63 91.7048 333.343 89.7983" stroke="#33FF34" stroke-width="7" stroke-linecap="round" stroke-linejoin="round"/>
<path d="M323.136 89.7983C318.849 91.7005 315.853 95.9879 315.853 100.985V115.732C315.853 122.49 321.332 127.97 328.091 127.97H328.385C332.793 127.97 338.841 124.384 339.935 119.575" stroke="#33FF34" stroke-width="7" stroke-linecap="round" stroke-linejoin="round"/>
<path d="M178.662 102.537V115.45C178.662 120.592 181.778 125.004 186.22 126.91" stroke="#33FF34" stroke-width="7" stroke-linecap="round" stroke-linejoin="round"/>
<path d="M178.628 114.218V101.305C178.628 96.1287 175.473 91.6917 170.98 89.8066" stroke="#33FF34" stroke-width="7" stroke-linecap="round" stroke-linejoin="round"/>
<path d="M161.14 89.897C156.759 91.8291 153.703 96.2062 153.703 101.301" stroke="#33FF34" stroke-width="7" stroke-linecap="round" stroke-linejoin="round"/>
<path d="M146.085 127.299C150.535 125.397 153.651 120.981 153.651 115.834" stroke="#33FF34" stroke-width="7" stroke-linecap="round" stroke-linejoin="round"/>
<path d="M103.764 114.603V101.69C103.764 94.8081 109.342 89.2256 116.228 89.2256C123.11 89.2256 128.693 94.8039 128.693 101.69" stroke="white" stroke-width="7" stroke-linecap="round" stroke-linejoin="round"/>
<path d="M128.727 115.834C128.727 120.96 131.821 125.358 136.241 127.273" stroke="white" stroke-width="7" stroke-linecap="round" stroke-linejoin="round"/>
<path d="M95.561 127.478C100.327 125.73 103.73 121.148 103.73 115.775V102.861" stroke="white" stroke-width="7" stroke-linecap="round" stroke-linejoin="round"/>
<path d="M78.7529 58.7822V115.428C78.7529 120.506 81.681 124.901 85.9384 127.021" stroke="white" stroke-width="7" stroke-linecap="round" stroke-linejoin="round"/>
</svg>
