<svg width="65" height="66" viewBox="0 0 65 66" fill="none" xmlns="http://www.w3.org/2000/svg">
<rect x="65" width="66" height="65" rx="32.5" transform="rotate(90 65 0)" fill="white"/>
<path d="M32.9998 24.2008C33.9387 24.2008 34.6998 23.4397 34.6998 22.5008C34.6998 21.5619 33.9387 20.8008 32.9998 20.8008C32.0609 20.8008 31.2998 21.5619 31.2998 22.5008C31.2998 23.4397 32.0609 24.2008 32.9998 24.2008Z" fill="#7ECC17"/>
<path d="M22.7998 41.2009H43.1998V44.6009H22.7998V41.2009ZM29.5998 32.4119L34.3462 37.1617L41.0306 30.4722L43.1998 32.7009V25.9009H36.3998L38.6268 28.0684L34.3445 32.3507L29.5998 27.6009L22.7998 34.4009L25.2036 36.8047L29.5998 32.4119Z" fill="#7ECC17"/>
<path d="M44.9 17.4008H39.2934C39.1265 17.1495 38.9448 16.9082 38.7494 16.6783L38.7324 16.6579C37.4834 15.2031 35.7261 14.2801 33.8194 14.0773C33.278 13.9742 32.722 13.9742 32.1806 14.0773C30.2739 14.2801 28.5166 15.2031 27.2676 16.6579L27.2506 16.6783C27.0552 16.9076 26.8736 17.1483 26.7066 17.3991L21.1 17.4008C19.7478 17.4022 18.4514 17.9399 17.4952 18.8961C16.5391 19.8522 16.0014 21.1486 16 22.5008V46.3008C16.0014 47.653 16.5391 48.9494 17.4952 49.9056C18.4514 50.8617 19.7478 51.3995 21.1 51.4008H44.9C46.2522 51.3995 47.5486 50.8617 48.5048 49.9056C49.4609 48.9494 49.9987 47.653 50 46.3008V22.5008C49.9987 21.1486 49.4609 19.8522 48.5048 18.8961C47.5486 17.9399 46.2522 17.4022 44.9 17.4008ZM46.6 46.3008C46.6 46.7517 46.4209 47.1841 46.1021 47.5029C45.7833 47.8217 45.3509 48.0008 44.9 48.0008H21.1C20.6493 48.0004 20.2171 47.8211 19.8984 47.5024C19.5797 47.1837 19.4005 46.7515 19.4 46.3008V22.5008C19.4005 22.0501 19.5797 21.6179 19.8984 21.2992C20.2171 20.9805 20.6493 20.8013 21.1 20.8008H28.835C29.0301 19.8401 29.5513 18.9763 30.3104 18.3559C31.0694 17.7355 32.0196 17.3966 33 17.3966C33.9804 17.3966 34.9306 17.7355 35.6896 18.3559C36.4487 18.9763 36.9699 19.8401 37.165 20.8008H44.9C45.3507 20.8013 45.7829 20.9805 46.1016 21.2992C46.4203 21.6179 46.5996 22.0501 46.6 22.5008V46.3008Z" fill="#7ECC17"/>
</svg>
