<svg width="25" height="25" viewBox="0 0 25 25" fill="none" xmlns="http://www.w3.org/2000/svg">
<path d="M16.7956 16.2158C17.1374 15.4946 17.4559 14.7657 17.7117 13.9908C17.9675 13.2159 18.1456 12.4407 18.3004 11.6578L22.2515 12.9622C22.1977 13.7532 22.0626 14.5552 21.803 15.3415C21.5434 16.1278 21.1745 16.8526 20.7467 17.5202M12.635 21.8684C13.7539 20.8351 14.7431 19.6452 15.5874 18.3443L19.0358 19.4828C17.2756 21.0099 15.0035 21.8567 12.635 21.8684ZM14.4344 15.4363L8.96371 13.6302C9.09511 12.8395 9.27326 12.0643 9.52907 11.2894C9.78488 10.5146 10.1071 9.77424 10.4685 9.07215L15.9392 10.8782C15.7998 11.6536 15.6296 12.4441 15.3738 13.219C15.118 13.9939 14.7879 14.7189 14.4344 15.4363ZM9.45692 21.3247C8.93813 19.637 8.65528 17.8629 8.71397 16.0751L13.1793 17.5493C12.1621 19.0206 10.8786 20.2776 9.45692 21.3247ZM9.28043 6.15252L5.86711 5.02566C7.61725 3.48954 9.88884 2.63997 12.2562 2.63615C11.1373 3.66946 10.1598 4.86321 9.28043 6.15252ZM2.85755 14.1417L6.27087 15.2686C6.20976 16.828 6.28435 18.3691 6.56814 19.8655C4.67543 18.4466 3.35802 16.4144 2.85755 14.1417ZM2.65141 11.5463C2.70514 10.7552 2.8403 9.95316 3.09987 9.1669C3.35945 8.38064 3.72839 7.65576 4.15619 6.98823L8.10722 8.29261C7.76542 9.01381 7.44699 9.74273 7.19118 10.5176C6.93537 11.2925 6.75722 12.0677 6.60244 12.8506M15.4497 3.17233C15.9685 4.86004 16.2476 6.64555 16.1889 8.43327L11.7235 6.95908C12.7408 5.48781 14.028 4.21943 15.4497 3.17233ZM22.0453 10.3667L18.5969 9.22825C18.697 7.69614 18.605 6.15493 18.323 4.63904C20.2369 6.06701 21.5476 8.10463 22.0453 10.3667ZM16.2134 0.859127C9.74911 -1.27497 2.83105 2.12778 0.761982 8.39508C-0.235747 11.4172 0.0389505 14.7222 1.52565 17.5829C2.26178 18.9994 3.27332 20.2642 4.50249 21.3051C5.73166 22.3459 7.15441 23.1425 8.68949 23.6493C11.7897 24.6728 15.1593 24.4538 18.057 23.0406C20.9547 21.6273 23.1432 19.1355 24.1409 16.1133C24.6349 14.6169 24.8217 13.0353 24.6907 11.4589C24.5597 9.88241 24.1134 8.34197 23.3772 6.92548C22.6411 5.509 21.6295 4.24422 20.4004 3.20335C19.1712 2.16248 17.7485 1.36591 16.2134 0.859127Z" fill="#7ECC17"/>
</svg>
