<svg width="107" height="61" viewBox="0 0 107 61" fill="none" xmlns="http://www.w3.org/2000/svg">
<rect x="107" width="61" height="107" rx="30.5" transform="rotate(90 107 0)" fill="white" fill-opacity="0.25"/>
<g filter="url(#filter0_d_67_8)">
<path d="M11.536 35.216V30.544H20.88V35.216H11.536ZM31.9573 42.448C30.3999 42.448 28.8426 42.256 27.2853 41.872C25.7493 41.488 24.4053 40.944 23.2533 40.24L25.5573 35.472C26.4533 36.0693 27.4453 36.528 28.5333 36.848C29.6426 37.168 30.7199 37.328 31.7653 37.328C32.8533 37.328 33.7173 37.1253 34.3573 36.72C34.9973 36.3147 35.3173 35.7387 35.3173 34.992C35.3173 34.3307 35.0506 33.808 34.5173 33.424C33.9839 33.0187 33.1093 32.816 31.8933 32.816H29.2373V28.816L35.2533 22.32L35.8613 24.496H24.4053V19.6H40.5973V23.568L34.5813 30.064L31.4773 28.304H33.2053C35.9999 28.304 38.1119 28.9333 39.5413 30.192C40.9919 31.4293 41.7173 33.0293 41.7173 34.992C41.7173 36.272 41.3653 37.4773 40.6613 38.608C39.9786 39.7387 38.9226 40.6667 37.4933 41.392C36.0639 42.096 34.2186 42.448 31.9573 42.448ZM55.2385 42.448C53.3185 42.448 51.6118 41.9893 50.1185 41.072C48.6465 40.1547 47.4838 38.832 46.6305 37.104C45.7772 35.376 45.3505 33.2747 45.3505 30.8C45.3505 28.3253 45.7772 26.224 46.6305 24.496C47.4838 22.768 48.6465 21.4453 50.1185 20.528C51.6118 19.6107 53.3185 19.152 55.2385 19.152C57.1372 19.152 58.8225 19.6107 60.2945 20.528C61.7878 21.4453 62.9612 22.768 63.8145 24.496C64.6678 26.224 65.0945 28.3253 65.0945 30.8C65.0945 33.2747 64.6678 35.376 63.8145 37.104C62.9612 38.832 61.7878 40.1547 60.2945 41.072C58.8225 41.9893 57.1372 42.448 55.2385 42.448ZM55.2385 37.264C55.9212 37.264 56.5185 37.0507 57.0305 36.624C57.5638 36.1973 57.9798 35.5147 58.2785 34.576C58.5772 33.616 58.7265 32.3573 58.7265 30.8C58.7265 29.2213 58.5772 27.9627 58.2785 27.024C57.9798 26.0853 57.5638 25.4027 57.0305 24.976C56.5185 24.5493 55.9212 24.336 55.2385 24.336C54.5558 24.336 53.9478 24.5493 53.4145 24.976C52.9025 25.4027 52.4865 26.0853 52.1665 27.024C51.8678 27.9627 51.7185 29.2213 51.7185 30.8C51.7185 32.3573 51.8678 33.616 52.1665 34.576C52.4865 35.5147 52.9025 36.1973 53.4145 36.624C53.9478 37.0507 54.5558 37.264 55.2385 37.264ZM72.1527 42L87.4487 19.6H92.0568L76.7607 42H72.1527ZM74.2007 31.728C73.1127 31.728 72.1314 31.4827 71.2567 30.992C70.3821 30.5013 69.6994 29.7973 69.2087 28.88C68.7181 27.9413 68.4727 26.8213 68.4727 25.52C68.4727 24.2187 68.7181 23.1093 69.2087 22.192C69.6994 21.2747 70.3821 20.5707 71.2567 20.08C72.1314 19.568 73.1127 19.312 74.2007 19.312C75.3101 19.312 76.2914 19.568 77.1447 20.08C78.0194 20.5707 78.7021 21.2747 79.1927 22.192C79.7047 23.1093 79.9607 24.2187 79.9607 25.52C79.9607 26.8 79.7047 27.9093 79.1927 28.848C78.7021 29.7867 78.0194 30.5013 77.1447 30.992C76.2914 31.4827 75.3101 31.728 74.2007 31.728ZM74.2327 28.688C74.7661 28.688 75.2034 28.4427 75.5447 27.952C75.9074 27.4613 76.0887 26.6507 76.0887 25.52C76.0887 24.3893 75.9074 23.5787 75.5447 23.088C75.2034 22.5973 74.7661 22.352 74.2327 22.352C73.6994 22.352 73.2407 22.5973 72.8567 23.088C72.4941 23.5787 72.3127 24.3893 72.3127 25.52C72.3127 26.6507 72.4941 27.4613 72.8567 27.952C73.2407 28.4427 73.6994 28.688 74.2327 28.688ZM90.0088 42.288C88.8994 42.288 87.9074 42.0427 87.0328 41.552C86.1794 41.0613 85.5074 40.3573 85.0168 39.44C84.5261 38.5013 84.2808 37.3813 84.2808 36.08C84.2808 34.7787 84.5261 33.6693 85.0168 32.752C85.5074 31.8347 86.1794 31.1307 87.0328 30.64C87.9074 30.128 88.8994 29.872 90.0088 29.872C91.1181 29.872 92.0994 30.128 92.9528 30.64C93.8274 31.1307 94.5101 31.8347 95.0007 32.752C95.5128 33.6693 95.7688 34.7787 95.7688 36.08C95.7688 37.3813 95.5128 38.5013 95.0007 39.44C94.5101 40.3573 93.8274 41.0613 92.9528 41.552C92.0994 42.0427 91.1181 42.288 90.0088 42.288ZM90.0088 39.248C90.5421 39.248 90.9901 39.0027 91.3528 38.512C91.7154 38.0213 91.8967 37.2107 91.8967 36.08C91.8967 34.9493 91.7154 34.1387 91.3528 33.648C90.9901 33.1573 90.5421 32.912 90.0088 32.912C89.4967 32.912 89.0487 33.1573 88.6648 33.648C88.3021 34.1387 88.1208 34.9493 88.1208 36.08C88.1208 37.2107 88.3021 38.0213 88.6648 38.512C89.0487 39.0027 89.4967 39.248 90.0088 39.248Z" fill="white"/>
</g>
<defs>
<filter id="filter0_d_67_8" x="7.53613" y="19.1523" width="92.2324" height="31.2959" filterUnits="userSpaceOnUse" color-interpolation-filters="sRGB">
<feFlood flood-opacity="0" result="BackgroundImageFix"/>
<feColorMatrix in="SourceAlpha" type="matrix" values="0 0 0 0 0 0 0 0 0 0 0 0 0 0 0 0 0 0 127 0" result="hardAlpha"/>
<feOffset dy="4"/>
<feGaussianBlur stdDeviation="2"/>
<feComposite in2="hardAlpha" operator="out"/>
<feColorMatrix type="matrix" values="0 0 0 0 0 0 0 0 0 0 0 0 0 0 0 0 0 0 0.25 0"/>
<feBlend mode="normal" in2="BackgroundImageFix" result="effect1_dropShadow_67_8"/>
<feBlend mode="normal" in="SourceGraphic" in2="effect1_dropShadow_67_8" result="shape"/>
</filter>
</defs>
</svg>
