<svg width="39" height="34" viewBox="0 0 39 34" fill="none" xmlns="http://www.w3.org/2000/svg">
<path d="M20.6563 32.55C20.2188 32.1125 20 31.5945 20 30.996C20 30.3987 20.2188 29.8812 20.6563 29.4437L33.475 16.625L20.6125 3.7625C20.2042 3.35417 20 2.84375 20 2.23125C20 1.61875 20.2188 1.09375 20.6563 0.65625C21.0938 0.21875 21.6118 0 22.2103 0C22.8076 0 23.325 0.21875 23.7625 0.65625L38.4625 15.4C38.6375 15.575 38.7618 15.7646 38.8353 15.9687C38.9076 16.1729 38.9438 16.3917 38.9438 16.625C38.9438 16.8583 38.9076 17.0771 38.8353 17.2812C38.7618 17.4854 38.6375 17.675 38.4625 17.85L23.7187 32.5937C23.3104 33.0021 22.8076 33.2062 22.2103 33.2062C21.6118 33.2062 21.0938 32.9875 20.6563 32.55Z" fill="#F8F8F8"/>
<path d="M1.5127 32.925C1.0752 32.4875 0.856445 31.9695 0.856445 31.371C0.856445 30.7737 1.0752 30.2562 1.5127 29.8187L14.3314 17L1.46895 4.1375C1.06061 3.72917 0.856445 3.21875 0.856445 2.60625C0.856445 1.99375 1.0752 1.46875 1.5127 1.03125C1.9502 0.59375 2.4682 0.375 3.0667 0.375C3.66403 0.375 4.18145 0.59375 4.61895 1.03125L19.3189 15.775C19.4939 15.95 19.6182 16.1396 19.6917 16.3437C19.764 16.5479 19.8002 16.7667 19.8002 17C19.8002 17.2333 19.764 17.4521 19.6917 17.6562C19.6182 17.8604 19.4939 18.05 19.3189 18.225L4.57519 32.9687C4.16686 33.3771 3.66403 33.5812 3.0667 33.5812C2.4682 33.5812 1.9502 33.3625 1.5127 32.925Z" fill="#F8F8F8" fill-opacity="0.42"/>
</svg>
