<svg width="65" height="66" viewBox="0 0 65 66" fill="none" xmlns="http://www.w3.org/2000/svg">
<rect x="65" width="66" height="65" rx="32.5" transform="rotate(90 65 0)" fill="white"/>
<path d="M36.375 24.75C36.375 24.3853 36.5199 24.0356 36.7777 23.7777C37.0356 23.5199 37.3853 23.375 37.75 23.375H48.75C49.1147 23.375 49.4644 23.5199 49.7223 23.7777C49.9801 24.0356 50.125 24.3853 50.125 24.75C50.125 25.1147 49.9801 25.4644 49.7223 25.7223C49.4644 25.9801 49.1147 26.125 48.75 26.125H37.75C37.3853 26.125 37.0356 25.9801 36.7777 25.7223C36.5199 25.4644 36.375 25.1147 36.375 24.75ZM51.5 37.125C51.5 37.4897 51.3551 37.8394 51.0973 38.0973C50.8394 38.3551 50.4897 38.5 50.125 38.5H37.9219C38.2295 39.6796 38.9191 40.7241 39.8831 41.4704C40.847 42.2167 42.0309 42.6227 43.25 42.625C43.9725 42.6285 44.6884 42.4874 45.3555 42.2099C46.0226 41.9324 46.6275 41.5242 47.1344 41.0094C47.3921 40.7522 47.7414 40.6078 48.1055 40.6078C48.4696 40.6078 48.8188 40.7522 49.0766 41.0094C49.206 41.1358 49.3088 41.2869 49.379 41.4537C49.4492 41.6204 49.4854 41.7995 49.4854 41.9805C49.4854 42.1614 49.4492 42.3405 49.379 42.5073C49.3088 42.674 49.206 42.8251 49.0766 42.9516C48.3153 43.7227 47.4079 44.3342 46.4075 44.7503C45.407 45.1665 44.3336 45.3788 43.25 45.375C41.6183 45.375 40.0233 44.8911 38.6665 43.9846C37.3098 43.0781 36.2524 41.7896 35.628 40.2821C35.0036 38.7746 34.8402 37.1158 35.1585 35.5155C35.4768 33.9152 36.2626 32.4452 37.4164 31.2914C38.5702 30.1376 40.0402 29.3519 41.6405 29.0335C43.2408 28.7152 44.8996 28.8786 46.4071 29.503C47.9146 30.1274 49.2031 31.1848 50.1096 32.5415C51.0161 33.8983 51.5 35.4933 51.5 37.125ZM48.5781 35.75C48.2752 34.5669 47.5872 33.5183 46.6224 32.7695C45.6577 32.0207 44.4712 31.6142 43.25 31.6142C42.0288 31.6142 40.8423 32.0207 39.8776 32.7695C38.9128 33.5183 38.2248 34.5669 37.9219 35.75H48.5781ZM32.9375 38.1562C32.9375 40.0708 32.177 41.9069 30.8232 43.2607C29.4694 44.6145 27.6333 45.375 25.7188 45.375H14.375C14.0103 45.375 13.6606 45.2301 13.4027 44.9723C13.1449 44.7144 13 44.3647 13 44V22C13 21.6353 13.1449 21.2856 13.4027 21.0277C13.6606 20.7699 14.0103 20.625 14.375 20.625H23.6562C24.9156 20.6268 26.1476 20.9926 27.2039 21.6784C28.2601 22.3643 29.0956 23.3408 29.6096 24.4905C30.1236 25.6403 30.2942 26.9141 30.101 28.1585C29.9077 29.403 29.3588 30.565 28.5203 31.5047C29.8293 32.0559 30.9466 32.981 31.7323 34.1641C32.518 35.3473 32.9372 36.736 32.9375 38.1562ZM15.75 30.9375H23.6562C24.6591 30.9375 25.6209 30.5391 26.33 29.83C27.0391 29.1209 27.4375 28.1591 27.4375 27.1562C27.4375 26.1534 27.0391 25.1916 26.33 24.4825C25.6209 23.7734 24.6591 23.375 23.6562 23.375H15.75V30.9375ZM30.1875 38.1562C30.183 36.9725 29.7107 35.8384 28.8736 35.0014C28.0366 34.1643 26.9025 33.692 25.7188 33.6875H15.75V42.625H25.7188C26.9025 42.6205 28.0366 42.1482 28.8736 41.3111C29.7107 40.4741 30.183 39.34 30.1875 38.1562Z" fill="#7ECC17"/>
</svg>
