<svg width="38" height="38" viewBox="0 0 38 38" fill="none" xmlns="http://www.w3.org/2000/svg">
<path d="M34.9051 16.5329L36.8274 27.4906C37.2091 29.6665 35.7546 31.7399 33.5787 32.1216L10.3618 36.1945C8.1859 36.5762 6.11253 35.1217 5.73082 32.9458L3.80855 21.9881M20.5447 26.0321L19.5944 20.6148M22.0027 6.2324C22.0027 6.2324 21.0523 0.815129 16.2682 1.65439C11.4841 2.49365 12.4345 7.91092 12.4345 7.91092M20.0696 23.3235C26.9082 22.1238 32.0395 18.3711 34.4105 16.3277C35.3609 15.5086 35.7361 14.2423 35.5193 13.0066L34.654 8.07409C34.2723 5.89818 32.1989 4.4437 30.023 4.82541L4.4141 9.31792C2.23819 9.69963 0.783704 11.773 1.16542 13.9489L2.03071 18.8814C2.2475 20.1172 3.03132 21.1801 4.20374 21.6268C7.12876 22.7411 13.2309 24.5232 20.0696 23.3235Z" stroke="#7ECC17" stroke-width="2" stroke-linecap="round" stroke-linejoin="round"/>
</svg>
