<svg width="45" height="45" viewBox="0 0 45 45" fill="none" xmlns="http://www.w3.org/2000/svg">
<path d="M40.476 28.942L34.4111 12.475C33.993 11.3398 32.7298 10.7566 31.5946 11.1747L24.3903 13.8281L20.9788 4.56539L11.7161 7.97688L15.1276 17.2396L7.92327 19.893C6.78807 20.3111 6.2049 21.5743 6.623 22.7095L12.6879 39.1765L10.6295 39.9346L11.3876 41.993C11.8057 43.1282 13.0689 43.7113 14.2041 43.2933L41.9922 33.0588C43.1274 32.6407 43.7106 31.3775 43.2925 30.2423L42.5344 28.1839L40.476 28.942ZM15.5882 15.3168L13.1243 8.62702L20.3287 5.97364L22.7925 12.6634L25.2564 19.3531L18.0521 22.0065L15.5882 15.3168ZM28.723 19.2451L28.344 18.2159L26.2856 18.974L25.5275 16.9157L31.7026 14.6413L36.6303 28.0208L15.0173 35.981L10.0896 22.6015L16.2648 20.3272L17.0229 22.3855L14.9645 23.1436L15.3435 24.1728L28.723 19.2451ZM7.65219 22.3304C7.44314 21.7628 7.73524 21.131 8.30232 20.9222L15.5066 18.2688L15.8857 19.298L8.68138 21.9514L14.3672 37.3892L38.0386 28.6709L32.3527 13.2331L25.1484 15.8865L24.7694 14.8573L31.9737 12.2039C32.5413 11.9949 33.1729 12.2864 33.3819 12.854L39.4468 29.3211L13.7171 38.7974L7.65219 22.3304ZM42.2633 30.6213C42.4723 31.1889 42.1808 31.8205 41.6132 32.0296L13.825 42.2641C13.258 42.4729 12.6258 42.1815 12.4168 41.6139L12.0377 40.5847L41.8842 29.5922L42.2633 30.6213Z" fill="#29C929"/>
<path d="M20.5173 17.592C22.5031 16.8606 23.5241 14.649 22.7927 12.6631C22.0614 10.6773 19.8497 9.65628 17.8639 10.3877C15.8781 11.1191 14.857 13.3307 15.5884 15.3165C16.3198 17.3023 18.5314 18.3234 20.5173 17.592ZM18.2429 11.4169C19.6617 10.8943 21.241 11.6235 21.7635 13.0422C22.2861 14.4609 21.5569 16.0403 20.1382 16.5628C18.7195 17.0853 17.1401 16.3562 16.6176 14.9375C16.0951 13.5187 16.8242 11.9394 18.2429 11.4169Z" fill="#29C929"/>
<path d="M13.9619 29.9415L19.1079 28.0462L17.7812 24.4441L12.6353 26.3394L13.9619 29.9415ZM14.0435 26.9895L17.1311 25.8523L17.6996 27.3961L14.6121 28.5333L14.0435 26.9895Z" fill="#29C929"/>
<path d="M15.6675 34.5729L20.8135 32.6776L19.4868 29.0754L14.3408 30.9707L15.6675 34.5729ZM15.7491 31.6208L18.8366 30.4837L19.4052 32.0275L16.3176 33.1646L15.7491 31.6208Z" fill="#29C929"/>
<path d="M23.956 22.1697L18.8101 24.0649L20.1367 27.6671L25.2827 25.7718L23.956 22.1697ZM23.8745 25.1217L20.7869 26.2589L20.2183 24.7151L23.3059 23.5779L23.8745 25.1217Z" fill="#29C929"/>
<path d="M25.6621 26.801L20.5161 28.6963L21.8428 32.2985L26.9888 30.4032L25.6621 26.801ZM25.5805 29.753L22.4929 30.8902L21.9244 29.3464L25.0119 28.2093L25.5805 29.753Z" fill="#29C929"/>
<path d="M32.1897 19.1371L24.9854 21.7905L28.0178 30.024L35.2221 27.3707L32.1897 19.1371ZM33.8139 26.7205L28.6679 28.6158L26.3936 22.4407L31.5395 20.5454L33.8139 26.7205Z" fill="#29C929"/>
<path d="M10.6869 8.35581L9.65771 8.73486L10.0368 9.76405L11.066 9.385L10.6869 8.35581Z" fill="#29C929"/>
<path d="M11.4452 10.4144L10.416 10.7935L12.6903 16.9686L13.7195 16.5895L11.4452 10.4144Z" fill="#29C929"/>
<path d="M23.4164 4.83628L22.3872 5.21533L22.7663 6.24452L23.7955 5.86547L23.4164 4.83628Z" fill="#29C929"/>
<path d="M24.1742 6.89487L23.145 7.27393L25.0403 12.4199L26.0695 12.0408L24.1742 6.89487Z" fill="#29C929"/>
</svg>
