<svg width="154" height="142" viewBox="0 0 154 142" fill="none" xmlns="http://www.w3.org/2000/svg">
<path d="M139.826 56.1207L133.271 56.0708" stroke="#29C929" stroke-width="4.5" stroke-linecap="round" stroke-linejoin="round"/>
<path d="M140.042 56.1206V51.8642C140.042 49.0594 138.359 46.6496 135.951 45.5815" stroke="#29C929" stroke-width="4.5" stroke-linecap="round" stroke-linejoin="round"/>
<path d="M130.215 45.5815C127.807 46.651 126.125 49.0594 126.125 51.8642V60.1488C126.125 63.946 129.203 67.0246 133 67.0246H133.167C135.641 67.0246 139.041 65.0084 139.655 62.3091" stroke="#29C929" stroke-width="4.5" stroke-linecap="round" stroke-linejoin="round"/>
<path d="M97.9939 67.0246L97.9868 45.5815" stroke="#29C929" stroke-width="4.5" stroke-linecap="round" stroke-linejoin="round"/>
<path d="M118.99 67.025V54.6565C118.99 50.6154 118.534 46.7511 115.078 45.5762" stroke="#29C929" stroke-width="4.5" stroke-linecap="round" stroke-linejoin="round"/>
<path d="M109.02 45.5874C105.638 46.3931 105.072 49.0153 105.072 51.756C105.072 54.5608 105.072 78.9027 105.072 81.7061" stroke="#29C929" stroke-width="4.5" stroke-linecap="round" stroke-linejoin="round"/>
<path d="M77.1865 56.3037L83.7415 56.3536" stroke="#29C929" stroke-width="4.5" stroke-linecap="round" stroke-linejoin="round"/>
<path d="M76.9712 56.3037V60.5601C76.9712 63.3649 78.6538 65.7747 81.0622 66.8427" stroke="#29C929" stroke-width="4.5" stroke-linecap="round" stroke-linejoin="round"/>
<path d="M86.7971 66.8425C89.2054 65.773 90.888 63.3646 90.888 60.5599V52.2752C90.888 48.478 87.8095 45.3994 84.0122 45.3994H83.8454C81.3714 45.3994 77.972 47.4157 77.3574 50.1149" stroke="#29C929" stroke-width="4.5" stroke-linecap="round" stroke-linejoin="round"/>
<path d="M139.633 88.1544L133.078 88.1045" stroke="white" stroke-width="4.5" stroke-linecap="round" stroke-linejoin="round"/>
<path d="M139.848 88.1543V83.8979C139.848 81.0931 138.165 78.6833 135.757 77.6152" stroke="white" stroke-width="4.5" stroke-linecap="round" stroke-linejoin="round"/>
<path d="M130.022 77.6152C127.613 78.6847 125.931 81.0931 125.931 83.8979V92.1825C125.931 95.9797 129.009 99.0583 132.806 99.0583H132.973C135.447 99.0583 138.847 97.0421 139.461 94.3428" stroke="white" stroke-width="4.5" stroke-linecap="round" stroke-linejoin="round"/>
<path d="M69.8066 50.8462C69.3403 47.8674 66.7708 45.5859 63.6608 45.5859H62.185C58.7457 45.5859 55.9565 48.3736 55.9565 51.8144V67.0247" stroke="#29C929" stroke-width="4.5" stroke-linecap="round" stroke-linejoin="round"/>
<path d="M48.8466 50.8403C48.3803 47.8616 45.8108 45.5801 42.7009 45.5801H41.225C37.7857 45.5801 34.9966 48.3678 34.9966 51.8085V67.0189" stroke="#29C929" stroke-width="4.5" stroke-linecap="round" stroke-linejoin="round"/>
<path d="M13.9585 45.606V57.9744C13.9585 62.0155 14.4148 65.8798 17.8712 67.0547" stroke="#29C929" stroke-width="4.5" stroke-linecap="round" stroke-linejoin="round"/>
<path d="M23.9268 67.0433C27.3091 65.8583 27.8751 62.0026 27.8751 57.973C27.8751 53.8506 27.8751 49.7268 27.8751 45.6045" stroke="#29C929" stroke-width="4.5" stroke-linecap="round" stroke-linejoin="round"/>
<path d="M48.8466 66.8325C48.3804 63.8537 45.0309 61.5723 41.9223 61.5723C38.483 61.5723 34.998 63.58 34.998 67.0193" stroke="#29C929" stroke-width="4.5" stroke-linecap="round" stroke-linejoin="round"/>
<path d="M76.9972 84.8643V83.4028C76.9972 79.9634 74.2095 77.1743 70.7687 77.1743H69.2929C65.8536 77.1743 63.0645 79.962 63.0645 83.4028V92.3832C63.0645 95.8226 65.8521 98.6117 69.2929 98.6117H70.7687C74.2081 98.6117 76.9972 95.824 76.9972 92.3832V90.9217" stroke="white" stroke-width="4.5" stroke-linecap="round" stroke-linejoin="round"/>
<path d="M111.293 77.1743H112.769C116.209 77.1743 118.998 79.962 118.998 83.4028V92.3832C118.998 95.8226 116.21 98.6117 112.769 98.6117H111.293" stroke="white" stroke-width="4.5" stroke-linecap="round" stroke-linejoin="round"/>
<path d="M105.065 77.1743V98.6103" stroke="#29C929" stroke-width="4.5" stroke-linecap="round" stroke-linejoin="round"/>
<path d="M94.064 98.1699C96.3683 97.2573 98.001 95.0129 98.001 92.3821V83.4016C98.001 80.7722 96.3683 78.5278 94.064 77.6138" stroke="white" stroke-width="4.5" stroke-linecap="round" stroke-linejoin="round"/>
<path d="M88.0068 77.6152C85.7025 78.5278 84.0698 80.7722 84.0698 83.4031V92.3836C84.0698 95.013 85.7025 97.2574 88.0068 98.1714" stroke="white" stroke-width="4.5" stroke-linecap="round" stroke-linejoin="round"/>
</svg>
