<svg width="39" height="35" viewBox="0 0 39 35" fill="none" xmlns="http://www.w3.org/2000/svg">
<path d="M4.73045 1.13632C4.96029 1.18244 5.17371 1.29404 5.34616 1.45826C5.5186 1.62248 5.64304 1.83265 5.70516 2.06457C6.07026 3.42712 6.77777 4.07859 7.65695 4.86704L7.72164 4.92361C8.46808 5.59279 9.44756 6.46874 9.85533 7.99054C10.2714 9.54353 9.87807 11.1164 8.93714 12.2394C9.31193 12.4205 9.66793 12.6718 10.0044 12.9968C11.1018 14.0576 11.9733 15.895 12.7167 18.6694C13.4698 21.4799 14.0076 24.9533 14.1322 27.809C14.1947 29.228 14.1578 30.5628 13.968 31.6078C13.8847 32.1247 13.7249 32.6244 13.4939 33.0896C13.2584 33.524 12.8521 34.0287 12.1827 34.2081C11.5134 34.3875 10.9092 34.1535 10.4896 33.8946C10.0562 33.6083 9.66776 33.2553 9.33808 32.8484C8.64923 32.0371 7.95028 30.9012 7.29446 29.6394C5.89103 26.8884 4.77026 23.9983 3.9505 21.0165C3.20711 18.2422 3.04364 16.2168 3.46357 14.7495C3.58169 14.3245 3.7659 13.9229 4.00918 13.5599C3.30666 13.3047 2.67323 12.8777 2.16428 12.3163C1.65532 11.7548 1.28632 11.0761 1.08955 10.3393C0.927677 9.7352 0.649236 8.69604 0.900274 7.19126C1.14604 5.71781 1.87816 3.90466 3.50458 1.62314C3.6417 1.43101 3.82953 1.28336 4.04643 1.19723C4.26333 1.11109 4.50045 1.08997 4.73045 1.13632ZM3.47978 9.6971C3.6256 10.2413 3.97579 10.7087 4.45252 10.9934C4.92925 11.2781 5.49391 11.3586 6.02228 11.217C6.55065 11.0754 6.99945 10.7234 7.26995 10.2385C7.54045 9.75354 7.61049 9.17535 7.46466 8.63111C7.27156 7.91044 6.84298 7.49038 6.04043 6.77113L6.01339 6.74671C5.49886 6.28634 4.88967 5.74049 4.35625 4.97376C3.73364 6.11183 3.45697 6.99182 3.34598 7.65498C3.18726 8.60541 3.34913 9.20953 3.47978 9.6971ZM5.84385 15.4981C5.62542 16.264 5.62769 17.7132 6.34161 20.3776C7.04585 23.0059 8.24841 26.1041 9.47808 28.4684C10.0973 29.6573 10.691 30.5979 11.1975 31.1941C11.2903 31.3048 11.3743 31.3949 11.449 31.4699C11.4763 31.3675 11.5039 31.2475 11.529 31.1053C11.6696 30.3357 11.7129 29.2226 11.6552 27.8851C11.54 25.2239 11.0307 21.9399 10.326 19.31C9.61213 16.6456 8.88948 15.3894 8.31739 14.8354C8.13866 14.6451 7.90998 14.5124 7.65998 14.4538C7.40643 14.4129 7.14799 14.4316 6.90423 14.5085C6.58548 14.5939 6.3712 14.7058 6.22239 14.839C6.0352 15.0147 5.90353 15.244 5.84385 15.4981ZM17.4327 20.3318C16.5492 20.4122 15.6574 20.3694 14.7816 20.2046C14.5788 19.261 14.3422 18.3249 14.0724 17.3982C14.9244 17.7031 15.8338 17.8518 16.7601 17.8217L15.4893 13.079C15.3143 12.426 15.3984 11.7321 15.723 11.1502C16.0476 10.5683 16.5861 10.1459 17.2202 9.97601L23.5953 8.26781C23.226 6.88999 22.49 5.6399 21.4704 4.65876C20.4508 3.67762 19.1883 3.00455 17.8255 2.71559C16.4627 2.42663 15.0539 2.5333 13.7583 3.02355C12.4627 3.5138 11.3319 4.36809 10.4938 5.48989C9.93176 4.66747 9.29147 4.09477 8.84657 3.69669L8.75643 3.61527C9.90977 2.19184 11.4268 1.12666 13.142 0.536005C14.8572 -0.0546531 16.7045 -0.148088 18.4824 0.2659C20.2603 0.679888 21.9004 1.58539 23.2236 2.88355C24.5469 4.18172 25.5024 5.82265 25.9859 7.62723L31.5642 6.13255C32.1982 5.96266 32.8758 6.05916 33.4479 6.40083C34.0199 6.7425 34.4396 7.30135 34.6146 7.95443L38.5735 22.7292C38.7485 23.3822 38.6645 24.0761 38.3399 24.658C38.0153 25.2399 37.4767 25.6623 36.8427 25.8322L22.4987 29.6757C21.8646 29.8456 21.187 29.749 20.6149 29.4074C20.0429 29.0657 19.6232 28.5069 19.4482 27.8538L17.4322 20.3302L17.4327 20.3318ZM19.8511 19.7946L21.8393 27.2148L36.1833 23.3714L32.2244 8.59665L26.3434 10.1725C26.3769 12.2837 25.7701 14.3438 24.607 16.0676C23.4439 17.7914 21.7819 19.0939 19.8511 19.7946ZM23.8475 10.8412L17.8804 12.4401L19.1882 17.3207C20.4858 16.8072 21.611 15.9273 22.435 14.7814C23.2589 13.6356 23.7484 12.2701 23.8475 10.8412Z" fill="#29C929"/>
</svg>
